<svg xmlns="http://www.w3.org/2000/svg" xmlns:xlink="http://www.w3.org/1999/xlink">
  <defs>
    <symbol viewBox="8 4 32 38" id="icon-feature-flower">
      <path d="M24 41.65c8.827 0 15.986-7.16 15.986-15.986C31.158 25.664 24 32.822 24 41.65zM12.64 20.78c0 2.45 1.99 4.44 4.44 4.44.933 0 1.804-.293 2.514-.78l-.036.336c0 2.45 1.99 4.44 4.44 4.44s4.44-1.99 4.44-4.44l-.035-.337c.72.492 1.582.78 2.514.78 2.45 0 4.44-1.99 4.44-4.44 0-1.77-1.038-3.29-2.54-4 1.492-.71 2.54-2.23 2.54-3.998 0-2.45-1.99-4.44-4.44-4.44-.932 0-1.803.293-2.514.78l.037-.336c0-2.45-1.99-4.44-4.44-4.44s-4.44 1.99-4.44 4.44l.035.336c-.72-.497-1.58-.78-2.513-.78-2.45 0-4.44 1.99-4.44 4.44 0 1.767 1.04 3.285 2.54 3.996-1.502.71-2.54 2.23-2.54 3.996zM24 12.343c2.45 0 4.44 1.99 4.44 4.44s-1.99 4.44-4.44 4.44-4.44-1.99-4.44-4.44 1.99-4.44 4.44-4.44zM8.014 25.663C8.014 34.49 15.172 41.65 24 41.65c0-8.828-7.158-15.986-15.986-15.986z"/>
    </symbol>
    <symbol viewBox="46.212 56.834 46.575 27.332" id="icon-feature-money">
      <path d="M88.882 56.834H50.116c-2.156 0-3.904 1.75-3.904 3.905v19.52c0 2.155 1.748 3.904 3.904 3.904h38.766c2.156 0 3.905-1.75 3.905-3.905V60.74c0-2.157-1.75-3.906-3.905-3.906zm-39.647 24.95V59.55h40.202v22.234H49.235z"/><path d="M53.14 77.88h32.395V63.456H53.14V77.88zM69.5 65.354c2.936 0 5.315 2.38 5.315 5.314 0 2.936-2.38 5.314-5.315 5.314s-5.314-2.38-5.314-5.314c0-2.935 2.378-5.314 5.314-5.314z"/>
    </symbol>
    <symbol viewBox="47 50 33 28" id="icon-feature-heart">
      <path d="M80.525 58.808c0-4.825-3.912-8.736-8.736-8.736-3.407 0-6.35 1.95-7.79 4.793-1.44-2.842-4.385-4.793-7.79-4.793-4.825 0-8.736 3.91-8.736 8.736 0 9.127 14.657 19.12 16.525 19.12 1.87 0 16.524-9.95 16.524-19.12z"/>
    </symbol>
    <symbol viewBox="0 0 35 35" id="icon-feature-ball">
      <path d="M.286 14.07c-.382 2.072-.384 4.21.008 6.3l4.12-3.21-4.128-3.09zM24.403 1.585C19.62-.623 13.96-.56 9.15 1.992l7.512 5.625 7.74-6.032zm9.497 11.59l-4.81 3.748 4.936 3.695c.496-2.445.463-4.988-.125-7.443zM9.21 32.415c4.843 2.533 10.723 2.65 15.73.112l-8.097-6.062-7.634 5.95zM7.914 14.432L1.68 9.767c-.32.67-.594 1.356-.824 2.056l5.308 3.974 1.75-1.364zm10.68 10.67l8.335 6.24c.27-.19.55-.39.82-.6.31-.25.62-.505.92-.77l-8.33-6.235-1.75 1.364zm-7.18-13.396l-7.41-5.55c-.464.552-.887 1.128-1.27 1.724l6.93 5.19 1.75-1.362zm10.68 10.668l8.09 6.06c.47-.545.905-1.113 1.298-1.702l-7.64-5.72-1.75 1.362zM14.914 8.98l-7.72-5.777c-.192.138-.383.28-.572.426-.396.3-.774.63-1.136.96l7.676 5.745 1.75-1.364zM25.59 19.65l6.972 5.22c.33-.662.615-1.34.855-2.033l-6.08-4.55-1.75 1.362zm.856-16.944L.88 22.626c.233.698.513 1.386.84 2.06L28.24 4.02c-.573-.48-1.172-.92-1.792-1.316zm4.295 3.918c-.3-.386-.61-.754-.94-1.106L2.79 26.568c.262.4.542.796.843 1.182.14.183.288.36.436.534L31.16 7.176c-.135-.186-.27-.37-.413-.552zM32.3 9L5.552 29.837c.544.5 1.114.962 1.708 1.382l25.962-20.23c-.263-.68-.57-1.35-.924-2z"/>
    </symbol>
    <symbol viewBox="612 500 55 24" id="icon-feature-rocket">
      <path d="M652.844 506.098c-3.647-.97-7.84-1.667-12.36-1.666-2.89 0-5.456.243-7.71.623l-6.783-4.668-13.453.005 5.81 6.184h8.448c-4.58 1.598-6.76 3.515-6.76 3.515l.003 3.78s2.313 1.91 6.93 3.518l-8.622-.005-5.81 6.19h13.454l6.815-4.69c2.26.397 4.822.646 7.68.647 4.523 0 8.713-.698 12.36-1.668-1.175-1.775-1.914-3.743-1.917-5.877.003-2.14.738-4.112 1.917-5.885zm3.423 1.034c-1.284 1.605-1.97 3.25-1.965 4.84-.007 1.597.677 3.238 1.968 4.847 6.4-2.165 10.42-4.844 10.42-4.844s-4.02-2.68-10.423-4.846z"/>
    </symbol>
    <symbol viewBox="240 240 32 32" id="icon-feature-gift">
      <path d="M242.56 272.243h12.504v-13.91H242.56v13.91zm28.182-23.62h-7.335c.52-.267.984-.55 1.396-.845 1.588-1.133 2.424-2.57 2.42-4 .002-1.168-.556-2.2-1.36-2.9-.804-.704-1.868-1.12-3.015-1.12-1.22-.002-2.352.42-3.32 1.068-1.46.98-2.606 2.45-3.424 4.067-.04.08-.078.157-.115.236-.3-.63-.65-1.23-1.05-1.8-.69-.99-1.527-1.86-2.5-2.51-.97-.65-2.104-1.07-3.32-1.07-1.216 0-2.326.51-3.158 1.29-.828.783-1.41 1.885-1.41 3.135 0 .73.21 1.494.65 2.19.55.87 1.422 1.63 2.63 2.25h-6.587c-.878 0-1.59.71-1.59 1.59v5.895h15.395v-7.49h1.874v7.49h15.395v-5.9c.003-.88-.71-1.59-1.588-1.59m-22.363-2.34c-.62-.39-1-.782-1.22-1.132-.22-.356-.29-.664-.293-.965-.004-.505.25-1.04.69-1.46.44-.417 1.03-.67 1.563-.67h.014c.685 0 1.366.23 2.046.684 1.017.67 1.974 1.85 2.644 3.186.343.676.61 1.39.79 2.087-3.082-.32-5.078-1.003-6.23-1.73m10.537-1.63c.56-.796 1.21-1.465 1.89-1.915.68-.45 1.36-.683 2.046-.683h.007c.576 0 1.12.22 1.496.55.376.337.57.74.572 1.17-.004.514-.272 1.26-1.467 2.134-1.137.826-3.1 1.674-6.126 2.266.29-1.202.847-2.472 1.587-3.52m-1.98 27.587h12.507v-13.91h-12.51v13.91z"/>
    </symbol>
    <symbol viewBox="54 54 21 21" id="icon-insta">
      <path d="M74.88 65.336c-.012-2.395-.343-4.788-.302-7.135-.023-.78-.086-1.53-.152-2.27-.105-.3-.11-.7-.152-1.06-.26-.17-.222-.64-.456-.83-.423-.23-1.2-.11-1.744-.22-.657-.02-1.254-.11-1.9-.15-1.935-.1-3.972-.07-5.995-.07-2.01 0-3.96-.14-5.7-.38h-2.2c-.1.01-.11.1-.23.08-.6.04-1.08.19-1.6.31-.21.12-.42.23-.69.3-.14.2-.52.15-.61.38-.19.22.18.45 0 .61v.91c.17.13.02.58.07.84v.99c-.02 1.28.13 2.4.07 3.72.47 2.76.37 6.54.08 9.42.15.58.36 1.11.45 1.75.25.48.33 1.13.68 1.52.5.21 1.23.19 1.89.23.38.1.67.29 1.14.3 2.84-.21 5.5-.16 8.43-.23 2.7.24 5.8.19 8.27-.23.19-.13.13-.53.23-.76-.06-.38.21-.45.23-.76.13-2.39.16-4.79.15-7.21zM61.9 59.11c.756-.152 1.48-.34 2.428-.303.71.076 1.287.283 1.897.456.116.184-.243.547.153.684v.076c.06.017.15.002.15.076.446.03.795.16 1.064.37.45.05.536.47 1.138.3-.09.21-.084.52-.075.83.324 1.18.475 2.81.303 4.25-.164.16-.215.44-.303.68-.31.32-.48.78-.836 1.06-.1.23-.25.41-.46.53-.12.21-.21.45-.46.53-.3.16-.58.01-.84-.08-.45.16-.91.31-1.22.6-.82-.1-1.65-.18-2.43-.31-.25-.14-.49-.28-.84-.31-.23-.21-.5-.37-.84-.46-.1-.13-.34-.12-.46-.23-.2-.03-.23-.23-.46-.23-.12-.41-.45-.62-.54-1.06-.23-.33-.31-.81-.46-1.22-.05-1.44.09-2.69.38-3.8.34-.59.77-1.1 1.13-1.67.25.02.37-.09.38-.31.31.05.43-.07.68-.08.25.01.27-.31.46-.45zm-1.67-2.732c-.118-.263-.067-.69-.076-1.062-.007-.285.278-.28.304-.532-.003-.074-.093-.06-.152-.076.126-.146.7-.097.834 0 .132.537-.354.455-.53.684.01.167.32.032.455.076.03.854-.06 1.496 0 2.202h-.456c-.01.234.22.226.45.228-.06.286.09.363.07.607-.23.153-.72.042-1.07.075-.11-.594.23-1.375.15-2.202zm-.684-1.594c.088-.013.134.016.15.076.18.253.01.683-.075.91-.17-.178-.02-.68-.07-.986zm.152 1.822c-.132-.07-.168-.237-.152-.456.132.07.167.238.152.456zm0 1.367c-.058.14-.082-.045-.076-.152.058-.13.08.05.076.16zm-.152.228c.175-.02.084.22.228.23-.01.2-.283.18-.38.08.04-.11.113-.19.152-.3zm-2.354-1.21c.006-.11.013-.21-.076-.23-.073-.73.13-1.41 0-1.97.25-.15.77-.04 1.14-.07v1.14c-.09.06-.204.1-.38.08-.054.28.324.13.38.31.007.85-.057 1.78.15 2.43-.564-.06-.905.11-1.44.08.096-.61-.02-1.43.53-1.59-.012-.14-.257-.05-.304-.15zm-.53 0c-.205.02-.218-.53-.078-.6.328.01.25.5.077.61zm-.153.99c.07-.31.03-.3.07-.68.23.02.26.77-.08.69zm.22-2.05c-.27.06-.28-.26-.16-.38.26-.05.27.27.15.38zm0-1.14c.03.16-.05.2-.08.31-.18.03-.09-.22-.23-.23.02-.1.19-.06.3-.07zm-.23 3.72c.14-.03.11.35-.08.23.04-.06.08-.12.07-.22zm-.69-3.72c.03.26-.44.32-.38 0h.38zm-.99.08c-.04.22-.33.18-.38.38-.22-.17.08-.47.38-.38zm-.46.76c.22-.2.45-.41.68-.6-.02-.12.07-.13.07-.23h.23c.1.38-.26.3-.31.53.02.12-.07.13-.08.23.02.34.12.59.08.99-.27.01-.28.28-.61.23.02-.42-.14-.67-.08-1.13zm.07 3.27v-1.6c.19-.18.39-.36.61-.53.29.49.18 1.4.45 1.9-.28.16-.75.11-1.06.23zm18.22 11.09c-.11.96-.16 1.97-.38 2.81-2.89.12-6.02.01-8.88.15-.2.05-.27-.03-.23-.23-.25 0-.26.25-.53.23.2-.33.44-.89.15-1.29-.8.02-.8.82-1.14 1.29-.69-.05-1.14.13-1.82.08.18-.71.75-1.02.91-1.75-.4-.55-.99.14-1.22.46-.2.48-.56.81-.76 1.29h-.98c.24-.47.49-.92.76-1.36.17-.51.62-.74.68-1.36-.16-.28-.42-.03-.68 0-.13.19-.28.34-.38.53-.24.38-.51.72-.69 1.14-.18.21-.34.01-.53.23-.39.27-.58.74-.99.99-.17-.06.04-.35.15-.38.04-.18-.1-.55.07-.6.06-.36.21-.64.38-.91.12-.74.52-1.2.68-1.89-.56.1-.678.64-.99.99-.21.45-.54.77-.686 1.29-.173-.13-.03-.58-.075-.83.127-.583.3-1.12.38-1.743.14-.22.18-.537.23-.836.17-.21.05-.61-.074-.76-.23.027-.38.13-.46.3-.19-.03-.196.51-.307.307-.045-2.585-.45-4.81-.456-7.436.02-.33-.188-.42-.23-.68 1.624.03 3.12.09 4.78.23-.09.14-.2.257-.306.38-.14.07-.227.17-.38.3-.6 1.653-.97 3.984-.606 6.15.23.58.59 1.03.987 1.44.902.486 1.63 1.15 2.5 1.67 1.7.36 3.84.37 5.54 0 .24-.12.486-.225.687-.38 1.37-1.24 2.76-2.46 2.96-4.86v-1.37c-.19-1.596-.68-2.903-1.74-3.64.33-.22 1.1.04 1.67.074.223.01.447.016.684 0 .41-.022.93-.053 1.44 0 .144.19.11.546.23.76-.06 1.686-.19 3.3-.15 5.09.104.456.13.99.23 1.44-.09.976-.24 1.89-.46 2.73zm.38-11.16c-.64-.12-1.23-.28-1.9-.38.07-.33.8-.01.98-.22.38-.22.29-.92.3-1.51.03-.34.11-.64.07-1.06-.4-.95-1.79-.42-2.89-.45-.22.72-.47 1.8-.3 2.66.16.49 1.02.29 1.51.46-.14.33-.69.06-.99.08-.3-.08-.71-.05-.99-.15-2.285.08-4.284 0-6.53.15.12-1.25.064-2.46-.075-3.64h3.114c-.345.37-.913.51-1.29.84-.44.25-.86.51-1.14.91.25.14.535-.24.76-.38.354-.07.48-.38.834-.46.42-.44 1.09-.62 1.67-.91.37-.02.69.01.98.08 1.28.01 2.45.13 3.79.08.61.14 1.45.07 1.97.3.103.3.23.58.3.91.003.99-.15 1.82-.23 2.727zM67.2 55.1c.11-.048-.01-.093 0 0zm0 0c-.53.153-1.02.347-1.365.68.484-.197 1.06-.305 1.367-.68zm1.064.606c.11-.05-.01-.09 0 0zm-1.748.91c.726-.16 1.18-.59 1.745-.91-.43.02-.59.32-.98.38-.21.213-.6.26-.76.53zm-.684-.837c-.11.04.006.09 0 0zm-.684.6c.11-.05-.008-.09 0 0zm-.075.08c.06.01.07-.03.073-.08-.065-.02-.07.03-.076.07zm-.08.07c.064.01.07-.03.077-.08-.067-.02-.072.03-.077.07zm-.834.6c.35-.13.61-.35.83-.61-.35.13-.62.35-.84.61zm2.28.99c.53-.05.75-.42 1.21-.53.28-.3.78-.38.98-.76-.56.02-.77.4-1.22.53-.29.29-.75.41-.99.76zm-2.28-.99c-.32-.07-.02.23 0 0zm-.54.38c.02.02.11-.04.07-.08-.02-.02-.12.04-.08.08zm2.81.61c-.11.04 0 .09 0 0zm-1.14 1.82c-.23-.23-.68-.23-.99-.38-.7-.04-1.23.09-1.75.23l-.91.45c-.27.16-.44.42-.76.53-.21.22-.35.51-.68.6-.01.22-.17.28-.31.38-.09.11-.09.31-.23.38-.01.12.03.29-.08.3.11 1.51.29 2.94.68 4.17.29.62.98.84 1.44 1.29.59.29 1.33.44 2.12.53.28-.05.55-.11.91-.08 1.21-.21 2.1-.74 2.81-1.44.1-.28.25-.51.45-.69-.254-.68.293-1.1.455-1.59 0-1.35-.2-2.48-.61-3.42-.255-.58-.92-.75-1.365-1.14-.06-.02-.15 0-.15-.07-.27-.14-.73-.24-1.063-.08zm-3.42 4.33c-.12-.06-.11-.25-.16-.38.26-.08.12.24.15.38zm.07.3c.04-.12.08-.01.07.07-.04.11-.08 0-.08-.08zm.45-2.05c.01-.09.07-.05.07 0-.02.08-.08.04-.08 0zm1.67-2.13c-.21.25.04.57.07.83-.3-.04-.57-.89-.08-.84zm.38 3.94c-.04-.04.05-.1.07-.08.04.04-.06.09-.08.07zm.76 2.88c.03-.11.06.01.15 0-.02.09-.15.07-.15 0zm2.2-2.58c-.24-.06-.15.2-.38.15.07-.16.12-.34.23-.46.13.02.17.13.15.3zm-1.14-3.8c.21.12.44.22.6.38.08.22.24.36.38.53.05.78.17 1.49.15 2.35-.26.1-.44.27-.69.38-.78-.01-1.36-.21-1.9-.46-.17-.26-.35-.507-.53-.76V62.2c.17-.19.32-.39.46-.61.23-.124.51-.2.45-.604-.04-.06-.08-.12-.08-.23.15.05.24.16.38.23.32.02.41-.2.76-.15z"/>
    </symbol>
    <symbol viewBox="57 50 15 28" id="icon-fb">
      <path d="M68.18 55.188c1.027.03 1.994 0 2.682-.3.39-.818.556-1.854.62-2.99-.19-.014-.063-.336-.208-.398-.03-.202-.278-.195-.31-.398-.276-.165-.456-.422-.722-.598-.727-.162-1.44-.335-2.164-.5-.85.045-1.895-.102-2.58.1-2.62-.04-3.997 1.12-5.26 2.393-.022.078-.002.197-.104.2-.574 1.586-.125 3.62-.204 5.58.1.436.107.958.204 1.395-.998.296-2.212.387-3.402.5-.317.323-.178 1.088-.206 1.692.085.583.278 1.06.413 1.595.21.19.59.39.82.49.06.03.07.08.1.1.5.27 1.45.01 2.27.1-.14 1.98.25 3.91 0 5.68 0 .32.29.38.21.8 0 .96-.07 1.99.21 2.69-.29.45-.5.98-.42 1.79.12.01.11.15.1.3-.08.47.64.17.51.7.16.45-.43.18-.42.5v.89c.53.28 1.46.18 2.26.2.91-.42 2.19-.48 2.78-1.2.46.23.91-.02 1.24-.2-.02-.32.27-.33.2-.7 0-.33-.17-.5-.1-.9v-2.89c-.21-2.3-.05-4.94-.31-7.18.89-.11 1.92-.08 2.58-.4.36-.45.38-1.23.52-1.9.18-.23.22-.59.2-1 .19-.22.07-.73.1-1.1-.14-.6-.17-1.3-.83-1.39-.89-.24-2.04.59-2.99.29.05-1.14-.3-2.34 0-3.39.74-.18 1.44-.4 2.16-.61zm-3.817 4.783c.117.26.254.49.414.7.08.02.203.01.205.1 1.192.06 2.2-.07 3.096-.3 0 1-.27 1.74-.518 2.5-.662.05-1.467.3-1.958.2-.276.17-.372.51-.62.7-.05.44.142.5 0 .8-.2.14-.055.61-.205.8v1.5c.085.28-.146.26-.104.5v3.49c-.085.28.146.26.104.5v2.99c.063.27-.132.79.103.9-.07.37-.412-.02-.824.1-.528.12-.926.37-1.548.4.117-.35.32-.62.31-1.09.05-.38-.364-.31-.515-.49.193-.65.562-1.12.722-1.8.197-.51.714-1.3.31-1.79-.522-.11-.52.29-.826.4-.03.08-.01.2-.11.2-.03.08-.01.2-.11.2.01.12-.15.07 0 0 .02-.07 0-.19.1-.2.02-.07 0-.19.1-.19v-.3c.36-.57.67-1.21.82-1.99.19-.28.28-.65.41-.99.15-.26.34-.87.1-1.19-.52.03-.8.3-.93.7-.32-.19.16-.43.1-.7.14-.23.17-.56.31-.8.2-.41.56-1.3 0-1.6-.44-.02-.62.21-.73.5-.22.19-.43.39-.52.7-.37-.07-.14-.73-.21-1.1-.07-.52.12-.9 0-1.2-.56-.8-2.03-.1-3.2-.3-.11-.3-.22-.98-.1-1.19 1.04-.09 2.48.2 3.2-.2.02-.08 0-.2.1-.2.09-.72-.27-1-.52-1.39.23-.8.04-2.02.1-2.99.23-.14.32-.41.51-.59.11-.955.67-1.476.72-2.49-.27 0-.61-.055-.62.2-.3-.115-.38.48-.51.2-.11-.54.24-.627.31-1 .6-.42 1.21-.82 1.85-1.192 1.74-.244 4.65-.45 6.09.2.05.614-.29.85-.21 1.494h-1.54c-1.09.24-1.99.67-2.99.997-.24.064-.28.33-.52.396-.034.4-.22.65-.31 1-.08 1.43.134 2.59.1 3.98z"/>
    </symbol>
    <symbol viewBox="53 54 23 20" id="icon-twitter">
      <path d="M75.706 57.855c-.227-.366-.91-.277-1.407-.37h-1.12c.14-.354.34-.647.52-.964.05-.43.25-.73.22-1.26.13-.16.17-.41.29-.59.1-.14.24-.47.07-.66-.05-.22-.3-.25-.6-.22-.09.04-.17.08-.22.15-.45.44-.78 1.02-1.26 1.41-.01.01-.07 0-.08 0-.09.01-.04.05-.08.08-.15.1-.26.15-.37.23-.29.18-.55.45-.89.52-.53-.21-1.16-.32-1.86-.37-1.16.1-2.3.22-3.04.74-.91.35-1.48 1.04-2.15 1.63-.05.32-.34.4-.37.74-.01.05-.01.09-.08.08.04.24-.05.35-.08.52 0 .13.2.43 0 .52-.82-.12-1.49-.63-2.15-.96-.72-.36-1.47-.6-2.08-1.11-.717-.32-1.26-.82-1.78-1.34-.207-.31-.54-.49-.666-.89-.38-.16-.18-.91-.74-.89-.32-.04-.35.2-.45.37-.07.23-.36.23-.37.52-.008.05-.015.09-.078.08-.17 1.09-.528 2-.52 3.26.13.42.35.74.593 1.04-.42.05-.71.23-.89.52-.06 1.08.38 1.65.74 2.3.14.38.36.69.6.96.02.23.21.29.3.45.02.11.125.13.15.23-.04.11.29.18.074.22-.41.13-1.013.07-1.26.37-.11.28-.11.83 0 1.11.038.24.28.26.3.52.5.42 1.09.75 1.63 1.11.58.17 1.22.27 1.86.37-.1.35-.34.55-.595.74-.78.38-1.85.48-2.74.74-.56.04-.96.23-1.56.23-.33.13-.856.08-1.11.22-.12.07-.1.1-.22.22-.14.41.11.74.44.89-.008.25.22.28.37.37.09.18.252.29.443.37.54.47 1.27.76 1.924 1.11.83.19 1.65.38 2.52.52.898.12 1.9.13 2.818.22h.97c.51.14 1.23.06 1.85.08.094-.1.32-.07.52-.07.52-.27 1.194-.38 1.63-.74.57-.24.99-.64 1.556-.89.87-.76 1.94-1.32 2.52-2.37.208-.19.35-.43.448-.74.266-.15.386-.45.59-.66.4-.41.7-.924 1.036-1.4.32-.5.58-1.054.89-1.56-.01-.41.31-.49.3-.89.193-.23.18-.662.37-.88-.03-.26.03-.42.075-.6.05-1.28-.044-2.42-.294-3.4.59-.15 1.18-.3 1.63-.59.52-.203.99-.6.81-1.28zm-3.408 4.076c-.153.86-.615 1.41-1.038 2.01.06.38-.104.54-.073.89-.158.31-.287.65-.37 1.04-.204.27-.333.61-.52.89-.366.55-.777 1.05-1.186 1.56-.37.56-.91.97-1.33 1.48-.42.5-.94.89-1.4 1.34-.47.17-.89.4-1.26.67-.23.09-.46.18-.66.3-.17.15-.5.15-.67.29-1.08.15-2.3.17-3.55.15-1.03-.1-2.11-.16-3.04-.37-.92-.19-1.51-.71-2.29-1.03.15-.24.64-.15.96-.22.03-.17.4 0 .45-.15.26.06.29-.11.52-.07.57-.2 1.23-.3 1.71-.6.29-.14.41-.43.67-.59.04-.19.11-.34.23-.44.05-.27.2-.44.15-.81.11-.21.3-.34.3-.66-.07-.14-.13-.31-.29-.37-.02-.19-.37-.06-.44-.22-.25.03-.42-.03-.59-.07-.15-.04-.49.09-.52-.07-.84-.02-1.3-.43-1.85-.74.43-.26 1.04-.35 1.34-.74.52-.08 1.06-.13 1.12-.67 0-.71-.77-.66-1.33-.81-.77-.66-1.19-1.67-1.78-2.52.24-.15.57-.22.75-.44.46.06.54-.25.67-.52.02-.49-.33-.6-.59-.81-.26-.21-.47-.46-.66-.74 0-.82-.02-1.65.08-2.37.06-.016.07.03.078.07.223.44.56.77.81 1.185.53.36.926.855 1.557 1.11.45.41 1.106.62 1.555 1.04.6.264 1.16.57 1.704.89.67.194 1.05.67 2 .59l.59-.3c.25-.45-.06-1.08.14-1.63.26-.66.8-1.03 1.26-1.48.29-.15.56-.33.82-.52.35-.093.676-.21.96-.37.38-.02.71-.072 1.04-.143h1.26c.243.055.474.12.74.15.21.14.38.315.665.37.79.696 1.27 1.7 1.41 3.04-.12.486.054.875 0 1.48zm.296-5.63c-.13.34-.23.71-.593.82-.01-.1-.12-.12-.14-.22-.01-.21.21-.18.3-.29.17-.08.25-.25.45-.29 0-.09.11-.04 0 0zm-5.484 3.04c.163.14.284.31.52.37.1.23.313.33.593.37.047-.15.346-.04.37-.22.174-.02.166-.23.296-.29-.02-.55-.13-1-.37-1.33-.76-.42-1.68.04-1.41 1.11z"/>
    </symbol>
    <symbol viewBox="0 0 27 34" id="logo-htmlacademy">
      <path d="M13.62.017L13.472 0 0 1.412v24.66l13.473 8.018 13.43-7.99.042-.025V1.412L13.62.017zm11.4 12.11L13.494 5.334V5.23l-.088.05-.088-.056v.11L1.924 12.117v-8.97l11.548-1.213L25.02 3.147v8.98zm-11.615-5.34L24.923 13.5l-4.48 2.64-7.092-4.22-.01 1.414 5.904 3.513-.86.507-5.03-2.992-.013 1.415 3.827 2.275-.782.523-3.03-1.787-.015 1.413 1.85 1.095-1.8 1.08-11.355-6.75 11.37-6.835zm-11.48 8.34l11.41 6.79.017 1.045-7.942-4.728-.015 1.416 7.98 4.795.017 1.076-7.973-4.74-.017 1.418 8.02 4.822.047.024 8.144-4.872-.01-5.176 3.414-2.036v10.02L13.47 31.85 1.925 24.98v-9.853z"/>
    </symbol>
    <symbol viewBox="265 371 20 18" id="icon-cart">
      <path d="M283.75 378.19h-3.15l-3.408-6.814c-.185-.37-.634-.52-1.006-.335-.37.188-.52.638-.335 1.008l3.073 6.143h-9.138l3.072-6.142c.185-.37.035-.82-.335-1.006-.37-.184-.82-.034-1.005.336l-3.407 6.814h-3.15c-.415 0-.75.336-.75.75s.335.75.75.75h.156l.855 2.99c-.187.138-.316.348-.316.596 0 .396.31.71.697.74l1.657 5.794h12.697l1.656-5.795c.387-.028.697-.344.697-.74 0-.248-.13-.458-.316-.595l.856-2.99h.157c.414 0 .75-.337.75-.75s-.338-.75-.752-.75zm-4.18 10.12h-10.434l-1.224-4.283h12.88l-1.223 4.284zm1.652-5.784h-13.74l-.81-2.836h15.36l-.81 2.836z"/>
    </symbol>
    <symbol viewBox="0 0 32 32" id="icon-video">
      <path d="M26 15l6-4v16l-6-4v-8zm-2 0v8c0 2.21-1.79 4-4 4H4c-2.21 0-4-1.79-4-4v-8c0-2.21 1.79-4 4-4h10c0-1.105.895-2 2-2V7H5c-.553 0-1-.447-1-1s.447-1 1-1h12c.553 0 1 .447 1 1v3c1.105 0 2 .895 2 2 2.21 0 4 1.79 4 4zm-12 0H4v8h8v-8zm8 1c0-.553-.447-1-1-1h-4c-.553 0-1 .447-1 1s.447 1 1 1h4c.553 0 1-.447 1-1z"/>
    </symbol>
    <symbol viewBox="-260 -20 41 63" id="icon-interior">
      <path d="M-244.227 18.283c-.286.966-.245 2.19.027 3.64.494 2.634 1.687 6.04 2.358 9.67h5.062c.696-3.642 1.95-7.05 2.47-9.684.288-1.45.33-2.66.042-3.62-.275-.9-.89-1.62-2.02-2.31h-5.998c-1.075.68-1.674 1.39-1.94 2.29zm11.832 19.995h-13.8c-1.292 0-2.298.976-2.298 2.23v2.228h18.398v-2.23c0-1.252-1.007-2.228-2.3-2.228zm7.133-55.724h-11.732c0-1.244-1.015-2.23-2.3-2.23-1.283 0-2.3.986-2.3 2.23h-11.737l-6.08 25.516c.79-.46 1.59-.99 2.63-.99 1.36 0 2.24.82 2.92 1.378.68.557 1.16.85 1.443.85.29 0 .77-.288 1.45-.837.68-.55 1.564-1.36 2.915-1.36 1.35 0 2.237.81 2.92 1.36.683.55 1.16.84 1.45.84.146 0 .34-.07.58-.21.242-.14.53-.352.872-.625.51-.41 1.14-.967 1.99-1.22.283-.084.592-.135.93-.135 1.346 0 2.237.803 2.92 1.352.682.55 1.16.84 1.45.84.287 0 .766-.292 1.445-.85.685-.55 1.57-1.363 2.926-1.363s2.24.815 2.92 1.37c.34.275.63.49.87.63.24.143.43.214.576.214.29 0 .76-.294 1.44-.855.68-.56 1.568-1.385 2.93-1.385 1.044 0 1.84.536 2.63 1l-6.077-25.507zM-235.88 33.82h-6.865c-.657 0-1.15.48-1.15 1.115s.493 1.113 1.15 1.113h6.9c.655 0 1.15-.48 1.15-1.113 0-.636-.495-1.115-1.15-1.115h-.036zm-3.415-24.484c-.146 0-.338.074-.58.213-.157.09-.37.26-.57.41v3.73h2.3V9.96c-.506-.38-.91-.624-1.15-.624z"/>
    </symbol>
    <symbol viewBox="226 226 60 60" id="icon-toy">
      <path d="M226 269.87l27.44 15.935V262.46L226 246.52v23.35zm51.347-31.243v2.453c0 1.817-3.458 3.29-7.73 3.29-4.266 0-7.727-1.473-7.727-3.29v-4.06h.024c.26 1.715 3.604 3.074 7.702 3.074 4.272 0 7.73-1.474 7.73-3.285 0-1.82-3.458-3.29-7.73-3.29-.34 0-.675.01-1.002.03l-4.975-2.89v3.082c0 1.817-3.46 3.29-7.73 3.29-2.683 0-5.045-.583-6.433-1.467-.196-.203-.44-.4-.73-.586-.364-.38-.566-.797-.566-1.236v-2.988l-4.806 2.792c-.35-.02-.698-.035-1.056-.035-4.267 0-7.727 1.47-7.727 3.29 0 1.81 3.46 3.284 7.728 3.284 4.1 0 7.447-1.358 7.706-3.073h.02v4.06c0 1.817-3.454 3.29-7.726 3.29-4.265 0-7.725-1.473-7.725-3.29v-2.42l-5.952 3.45 27.53 15.988 27.353-15.883-6.18-3.59zm-13.644 10.166c0 1.817-3.46 3.287-7.727 3.287-4.27 0-7.73-1.47-7.73-3.287v-4.06h.025c.26 1.716 3.61 3.077 7.71 3.077s7.445-1.36 7.707-3.076h.022v4.06zm-5.145 13.873v23.144L286 269.87v-23.143l-27.442 15.94zm-2.64-29.904c4.268 0 7.722-1.47 7.722-3.286 0-1.814-3.454-3.287-7.723-3.287-4.27 0-7.73 1.47-7.73 3.28s3.46 3.286 7.73 3.286"/>
    </symbol>
    <symbol viewBox="-1 -1 18 18" id="icon-search">
      <path d="M16.47 14.93l-3.415-3.415c.965-1.29 1.545-2.88 1.545-4.616 0-4.256-3.447-7.7-7.7-7.7S-.8 2.644-.8 6.9s3.446 7.7 7.7 7.7c1.733 0 3.325-.58 4.612-1.547l3.417 3.416c.2.2.415.33.77.33.605 0 1.1-.495 1.1-1.1 0-.24-.06-.5-.33-.77zM1.4 6.9c0-3.04 2.46-5.5 5.5-5.5s5.5 2.46 5.5 5.5-2.463 5.5-5.5 5.5-5.5-2.462-5.5-5.5z"/>
    </symbol>
    <symbol viewBox="264 371 20 19" id="icon-cart">
      <path d="M283.75 378.19h-3.15l-3.408-6.814c-.185-.37-.634-.52-1.006-.335-.37.188-.52.638-.335 1.008l3.073 6.143h-9.138l3.072-6.142c.185-.37.035-.82-.335-1.006-.37-.184-.82-.034-1.005.336l-3.407 6.814h-3.15c-.415 0-.75.336-.75.75s.335.75.75.75h.156l.855 2.99c-.187.138-.316.348-.316.596 0 .396.31.71.697.74l1.657 5.794h12.697l1.656-5.795c.387-.028.697-.344.697-.74 0-.248-.13-.458-.316-.595l.856-2.99h.157c.414 0 .75-.337.75-.75s-.338-.75-.752-.75zm-4.18 10.12h-10.434l-1.224-4.283h12.88l-1.223 4.284zm1.652-5.784h-13.74l-.81-2.836h15.36l-.81 2.836z"/>
    </symbol>
  </defs>
</svg>
